<?xml version="1.0" encoding="UTF-8"?>
<svg id="Camada_1" data-name="Camada 1" xmlns="http://www.w3.org/2000/svg" viewBox="0 0 40 49">
  <defs>
    <style>
      .cls-1 {
        fill: #fbbc00;
      }

      .cls-1, .cls-2, .cls-3 {
        stroke-width: 0px;
      }

      .cls-2 {
        fill: #fff;
      }

      .cls-3 {
        fill: #00e0b4;
      }

      .cls-4 {
        fill: none;
        stroke: #fff;
        stroke-width: 2px;
      }
    </style>
  </defs>
  <path class="cls-4" d="m5.14,1h29.14c2.29,0,4.14,1.85,4.14,4.13v38.72c0,2.28-1.85,4.13-4.14,4.13H5.14c-2.29,0-4.14-1.85-4.14-4.13V5.13C1,2.85,2.85,1,5.14,1Z"/>
  <path class="cls-1" d="m34.28,11.35c0,1.2-.36,2.38-1.03,3.38-.67,1-1.62,1.78-2.74,2.24-1.12.46-2.34.58-3.53.35-1.18-.24-2.27-.82-3.13-1.67-.85-.85-1.44-1.94-1.67-3.12-.24-1.18-.11-2.41.35-3.52.46-1.11,1.24-2.06,2.25-2.73,1-.67,2.18-1.03,3.39-1.03.8,0,1.6.15,2.34.46.74.31,1.42.75,1.98,1.32.57.57,1.02,1.24,1.32,1.98.31.74.46,1.53.46,2.33h0Z"/>
  <path class="cls-2" d="m31.05,22.76h-6.4c-1.42,0-2.57,1.15-2.57,2.57v4.48c0,1.42,1.15,2.57,2.57,2.57h6.4c1.42,0,2.57-1.15,2.57-2.57v-4.48c0-1.42-1.15-2.57-2.57-2.57Z"/>
  <path class="cls-3" d="m14.2,5.26h-6.4c-1.42,0-2.57,1.15-2.57,2.57v33.46c0,1.42,1.15,2.57,2.57,2.57h6.4c1.42,0,2.57-1.15,2.57-2.57V7.83c0-1.42-1.15-2.57-2.57-2.57Z"/>
</svg>