<svg xmlns="http://www.w3.org/2000/svg" width="297.966" height="370.201" viewBox="0 0 297.966 370.201"><g id="Grupo_482" data-name="Grupo 482" transform="translate(7848 -14145)"><path id="Caminho_68" data-name="Caminho 68" d="M259.09,0H38.876A38.828,38.828,0,0,0,0,38.779V331.423A38.827,38.827,0,0,0,38.876,370.2H259.09a38.828,38.828,0,0,0,38.877-38.778V38.779A38.828,38.828,0,0,0,259.09,0Z" transform="translate(-7848 14145)" fill="#2f4cdd"></path><path id="Caminho_69" data-name="Caminho 69" d="M114.363,51.292a45.881,45.881,0,1,1-3.487-17.63,45.945,45.945,0,0,1,3.487,17.63Z" transform="translate(-7703.271 14179.506)" fill="#fbbc00"></path><path id="Caminho_70" data-name="Caminho 70" d="M89.893,22.759H41.512A19.414,19.414,0,0,0,22.073,42.148V76a19.414,19.414,0,0,0,19.439,19.39H89.893A19.414,19.414,0,0,0,109.331,76V42.148A19.414,19.414,0,0,0,89.893,22.759Z" transform="translate(-7703.255 14294.244)" fill="#fff"></path><path id="Caminho_71" data-name="Caminho 71" d="M73.048,5.262H24.667A19.414,19.414,0,0,0,5.229,24.651V277.528a19.413,19.413,0,0,0,19.438,19.389H73.048a19.413,19.413,0,0,0,19.438-19.389V24.651A19.414,19.414,0,0,0,73.048,5.262Z" transform="translate(-7813.711 14179.506)" fill="#00e0b4"></path></g></svg>